<?xml version="1.0" standalone="no"?>
<!DOCTYPE svg PUBLIC "-//W3C//DTD SVG 20010904//EN"
 "http://www.w3.org/TR/2001/REC-SVG-20010904/DTD/svg10.dtd">
<svg version="1.0" xmlns="http://www.w3.org/2000/svg"
 width="16.000000pt" height="16.000000pt" viewBox="0 0 16.000000 16.000000"
 preserveAspectRatio="xMidYMid meet">
<metadata>
Created by potrace 1.11, written by Peter Selinger 2001-2013
</metadata>
<g transform="translate(0.000000,16.000000) scale(0.006154,-0.006154)"
fill="#000000" stroke="none">
<path d="M0 2295 l0 -305 410 0 410 0 12 28 c6 15 11 55 10 90 l-2 63 30 -23
c34 -25 39 -38 11 -31 -18 5 -19 2 -10 -37 13 -57 29 -86 38 -71 6 9 11 8 21
-4 16 -19 30 -19 30 1 0 9 6 14 13 11 6 -2 11 -8 10 -13 -1 -5 18 -10 42 -12
41 -3 43 -1 38 20 -3 13 -3 20 1 16 4 -3 16 2 27 13 11 11 25 17 31 13 7 -4 1
-12 -16 -21 -14 -7 -26 -20 -26 -28 0 -19 105 -21 114 -2 5 10 7 10 12 0 3 -7
14 -13 25 -13 15 0 19 7 19 38 0 30 7 45 31 68 18 16 29 22 27 14 -8 -23 21
-73 38 -66 8 3 14 -1 14 -9 0 -13 -24 -20 -52 -17 -3 1 -9 -5 -12 -13 -4 -12
4 -15 39 -15 l44 0 -5 36 c-2 20 -7 40 -10 45 -3 5 -1 9 5 9 16 0 41 -42 41
-68 0 -14 4 -21 11 -16 6 4 9 19 5 36 -5 25 -4 28 8 19 11 -9 18 -8 30 4 9 9
16 23 16 31 0 8 4 14 9 14 4 0 7 -13 5 -30 -3 -27 -2 -29 19 -19 14 6 40 43
66 92 23 45 36 75 29 66 -7 -8 -22 -20 -33 -26 -11 -7 -20 -20 -20 -30 0 -10
-9 -19 -20 -21 -16 -2 -17 -1 -6 7 19 12 23 43 8 53 -9 6 -9 8 1 8 6 0 12 5
12 10 0 7 -6 7 -19 0 -16 -8 -21 -6 -26 11 -5 16 -10 18 -21 8 -22 -18 -16 6
6 26 18 17 20 17 14 2 -3 -10 -1 -17 6 -17 6 0 8 -6 4 -12 -5 -9 -4 -10 4 -3
6 6 13 24 16 40 5 24 4 26 -3 10 -7 -14 -10 -16 -10 -4 -1 20 18 39 34 33 7
-3 20 6 29 20 18 29 52 36 42 10 -3 -9 -6 -18 -6 -20 0 -3 -6 -2 -12 2 -8 4
-8 2 1 -7 10 -11 15 -11 18 -1 6 16 26 16 21 0 -7 -21 15 -37 35 -27 9 6 17 7
17 3 0 -3 7 -1 15 6 10 8 15 9 15 2 0 -6 -6 -15 -12 -19 -7 -4 -19 -16 -27
-26 -12 -16 -12 -17 5 -11 10 4 27 15 37 26 10 10 20 18 23 18 7 0 -15 -38
-27 -45 -7 -5 -6 -11 2 -21 9 -11 8 -14 -5 -14 -10 0 -15 -4 -12 -8 3 -5 -1
-28 -8 -53 -14 -49 -22 -158 -10 -147 4 4 8 25 9 45 5 82 7 90 15 48 l8 -40 0
50 c0 28 1 57 1 66 2 31 121 139 154 139 5 0 7 -19 3 -47 -4 -35 -3 -42 4 -25
5 12 12 22 15 22 4 0 3 -6 0 -12 -4 -7 0 -5 8 4 8 10 16 15 19 12 3 -2 8 2 12
11 4 11 2 14 -7 9 -6 -4 -3 3 8 16 11 13 14 20 7 16 -20 -12 -13 7 18 48 17
22 30 33 30 25 0 -8 -5 -20 -12 -27 -6 -6 -13 -20 -14 -29 -3 -20 20 7 50 59
16 26 16 27 -1 21 -14 -5 -13 -1 6 20 25 27 37 35 26 17 -3 -5 -4 -10 -1 -10
8 0 44 64 51 92 7 27 7 27 -30 17 -20 -6 -39 -8 -42 -6 -3 3 -17 -9 -32 -25
-30 -34 -66 -34 -55 -1 5 14 4 15 -4 4 -6 -8 -8 -20 -6 -26 4 -8 -12 -14 -48
-19 -62 -7 -78 -10 -98 -18 -52 -21 -79 -26 -82 -16 -3 7 -11 6 -25 -3 -18
-11 -24 -10 -40 2 -16 13 -17 12 -5 -2 11 -14 9 -17 -10 -22 -12 -4 -20 -9
-17 -11 3 -3 20 -2 37 3 51 15 37 -3 -22 -28 -30 -12 -57 -29 -60 -37 -3 -8
-15 -14 -26 -14 -11 0 -23 -7 -26 -15 -4 -9 -12 -14 -20 -13 -7 2 -24 -12 -37
-30 -16 -21 -28 -29 -32 -22 -4 6 5 27 20 46 21 28 30 33 40 24 11 -9 18 -5
33 20 11 17 29 38 41 46 11 8 21 23 21 33 0 10 11 28 25 41 14 13 25 29 25 35
0 7 9 20 20 30 20 18 28 41 11 31 -5 -4 -7 3 -4 15 4 16 8 17 14 7 6 -9 9 -7
9 10 0 23 -14 30 -26 11 -5 -8 -9 -8 -14 1 -5 8 -16 9 -30 5 -15 -5 -19 -10
-11 -15 9 -5 8 -11 -4 -24 -9 -9 -18 -28 -20 -43 -3 -27 -61 -85 -80 -79 -5 2
-21 -6 -35 -16 -15 -12 -26 -15 -28 -9 -2 6 -9 8 -14 5 -7 -4 -8 -2 -4 4 4 7
1 12 -6 12 -8 1 -6 6 6 15 18 13 17 14 -4 12 -17 -1 -21 -6 -17 -24 3 -18 1
-21 -9 -12 -10 8 -15 5 -20 -15 -3 -14 -10 -24 -14 -21 -4 3 -13 -2 -20 -10
-7 -8 -17 -12 -23 -8 -5 3 -7 2 -4 -4 4 -6 -4 -20 -18 -33 -13 -12 -21 -28
-18 -36 4 -10 0 -12 -11 -8 -19 7 -19 9 -4 50 9 26 9 36 -1 48 -27 32 -84 8
-87 -35 -1 -13 -6 -35 -11 -49 -10 -23 -11 -23 -14 16 -4 43 20 101 36 86 4
-4 5 -2 2 5 -4 6 -2 24 4 40 13 33 13 91 -1 127 -9 26 -10 26 -120 26 -60 0
-110 -3 -110 -6 0 -3 5 -15 11 -27 10 -19 7 -18 -18 6 -27 25 -35 27 -116 27
-50 0 -87 -4 -87 -10 0 -13 46 -24 67 -15 44 19 89 16 109 -6 19 -22 19 -22
-1 -13 -32 14 -117 9 -155 -9 -37 -18 -76 -70 -65 -87 3 -6 22 -10 42 -10 32
0 35 -2 29 -22 -3 -13 -6 -29 -6 -36 0 -7 -14 3 -31 23 -26 29 -34 33 -50 24
-11 -5 -26 -6 -34 -2 -16 10 -11 21 43 97 18 25 30 51 27 56 -4 6 -137 10
-361 10 l-354 0 0 -305z m1085 228 c-2 -10 -4 -38 -4 -62 -1 -34 -4 -42 -12
-34 -17 17 -15 93 2 104 18 11 18 12 14 -8z m-90 -60 c30 -34 31 -43 6 -36
-11 3 -21 13 -24 23 -6 23 -54 37 -76 23 -9 -6 -17 -25 -17 -44 -2 -55 -4 -63
-19 -83 -11 -15 -17 -17 -29 -7 -7 6 -16 21 -19 32 -5 19 -4 20 19 4 33 -22
30 -12 -11 34 l-36 39 32 7 c17 4 39 15 49 25 10 10 24 20 31 22 24 9 68 -10
94 -39z m595 -8 c-7 -9 -15 -13 -19 -10 -3 3 1 10 9 15 21 14 24 12 10 -5z
m-591 -59 c-22 -9 -21 -11 19 -14 39 -3 45 -7 58 -37 20 -48 18 -49 -19 -21
-19 15 -41 26 -50 26 -9 0 -18 4 -21 9 -3 5 -15 7 -26 4 -26 -7 -26 14 0 22
11 3 20 12 20 20 0 9 7 11 22 7 21 -5 21 -5 -3 -16z m68 -129 c-2 -6 -12 -15
-22 -21 -11 -6 -27 -20 -38 -31 -18 -20 -18 -20 -5 2 17 31 1 42 -20 12 l-17
-24 -5 30 c-4 21 -1 32 10 36 25 11 101 7 97 -4z m703 -22 c-7 -9 -15 -13 -17
-11 -7 7 7 26 19 26 6 0 6 -6 -2 -15z m-555 -15 c3 -5 2 -10 -4 -10 -5 0 -13
5 -16 10 -3 6 -2 10 4 10 5 0 13 -4 16 -10z m-44 -82 c1 -7 1 -16 0 -20 0 -5
4 -8 9 -8 6 0 10 -10 10 -22 0 -26 -18 -13 -23 17 -1 11 -6 26 -10 33 -5 7 -4
12 2 12 6 0 12 -6 12 -12z m261 -47 c-5 -34 -5 -34 -17 -11 -10 18 -10 30 -2
47 14 32 26 10 19 -36z m-102 -11 c0 -5 -2 -10 -4 -10 -3 0 -8 5 -11 10 -3 6
-1 10 4 10 6 0 11 -4 11 -10z"/>
<path d="M1717 2580 c-3 -11 -1 -20 3 -20 5 0 5 -13 0 -29 -6 -22 -5 -31 6
-35 8 -3 14 -2 14 2 0 4 7 28 15 55 14 47 14 47 -9 47 -15 0 -26 -7 -29 -20z"/>
<path d="M2405 2590 c3 -5 8 -10 11 -10 2 0 4 5 4 10 0 6 -5 10 -11 10 -5 0
-7 -4 -4 -10z"/>
<path d="M2381 2573 c-1 -6 3 -15 9 -18 5 -3 8 -19 6 -35 -2 -21 0 -27 11 -23
8 3 12 15 9 32 -2 14 -5 30 -5 34 -1 5 -5 6 -10 3 -5 -4 -12 0 -14 6 -4 9 -6
10 -6 1z"/>
<path d="M1559 2553 c-6 -32 -5 -53 1 -53 4 0 7 14 8 30 1 26 -6 42 -9 23z"/>
<path d="M1254 2488 l-19 -23 23 19 c21 18 27 26 19 26 -2 0 -12 -10 -23 -22z"/>
<path d="M2231 2468 c3 -51 30 -158 39 -153 12 8 23 -51 14 -77 -4 -13 -7 -36
-6 -51 3 -33 -19 -59 -39 -47 -11 7 -11 17 -1 55 15 55 15 78 2 70 -6 -3 -14
4 -19 17 -9 20 -10 18 -11 -17 l-2 -40 -8 33 c-4 18 -11 36 -15 40 -5 4 -5 -1
-2 -10 7 -20 -9 -25 -16 -5 -3 6 -6 2 -7 -10 -2 -13 -4 -27 -5 -33 -1 -5 -3
-18 -5 -27 -1 -13 -5 -10 -12 10 -5 15 -14 27 -19 27 -5 0 -9 7 -9 16 0 9 -5
12 -12 8 -10 -6 -10 -4 0 8 8 10 9 17 2 20 -7 2 -7 14 0 38 12 42 -3 64 -24
35 -14 -20 -11 -49 5 -39 5 3 6 -2 3 -10 -3 -9 -9 -14 -13 -12 -4 3 -13 1 -21
-5 -12 -7 -12 -9 3 -9 10 0 15 -5 12 -11 -4 -6 -9 -8 -12 -5 -8 8 -43 -13 -43
-26 0 -6 -8 -17 -17 -25 -10 -8 -12 -12 -6 -8 9 4 11 1 7 -9 -3 -9 -10 -13
-15 -10 -5 3 -9 -1 -9 -10 0 -8 6 -17 13 -19 9 -4 9 -6 -1 -6 -8 -1 -16 8 -19
19 -7 26 -12 25 -48 -11 -20 -20 -37 -29 -54 -27 -22 3 -26 -2 -35 -37 -5 -22
-13 -43 -18 -46 -5 -3 -9 -9 -9 -13 3 -20 -1 -25 -14 -20 -8 4 -15 2 -15 -4 0
-6 -3 -17 -6 -26 -5 -13 19 -15 198 -13 183 2 203 4 203 19 0 28 11 29 25 3
13 -25 14 -25 157 -25 l145 0 53 35 53 36 1 81 c1 56 -3 84 -11 90 -11 6 -10
10 0 16 8 6 12 28 10 64 -2 45 -5 53 -15 42 -7 -7 -13 -30 -13 -52 0 -23 -6
-45 -15 -52 -8 -7 -15 -25 -15 -39 0 -15 -6 -35 -13 -46 -13 -16 -14 -15 -10
12 4 24 -22 143 -31 143 -2 0 -1 -38 1 -84 3 -49 0 -92 -6 -103 -9 -16 -10
-14 -11 11 0 16 -7 34 -15 40 -8 6 -17 36 -20 70 -3 33 -10 65 -15 71 -5 7 -7
14 -5 17 13 13 13 49 0 55 -8 3 -15 11 -15 17 0 7 -11 23 -24 35 -24 23 -24
23 -35 3 -13 -25 -14 -45 -2 -38 4 3 5 -12 1 -34 -4 -23 -3 -41 2 -42 6 -2 11
-20 12 -41 1 -23 -3 -36 -9 -33 -6 2 -10 -8 -9 -23 1 -14 3 -39 3 -54 1 -17 5
-26 12 -22 7 5 8 -5 3 -32 -12 -66 -24 -93 -18 -41 5 36 2 51 -10 63 -10 11
-17 36 -17 71 -3 77 -3 78 -15 89 -6 6 -17 42 -23 80 -17 100 -17 99 -30 103
-7 2 -11 -8 -10 -30z m159 -148 c0 -5 -2 -10 -4 -10 -3 0 -8 5 -11 10 -3 6 -1
10 4 10 6 0 11 -4 11 -10z m21 -80 c10 -9 18 -119 8 -125 -5 -4 -9 -21 -9 -40
0 -19 -5 -37 -11 -41 -8 -4 -9 1 -4 15 4 12 3 27 -2 34 -5 7 -10 57 -11 112
-1 84 1 96 11 75 6 -14 14 -27 18 -30z m-311 5 c0 -3 -5 -3 -10 0 -6 3 -14 -5
-20 -19 -6 -17 -14 -24 -25 -20 -9 4 -15 1 -15 -9 0 -8 -8 -21 -17 -28 -15
-12 -16 -12 -9 6 5 11 9 27 10 35 1 8 8 24 15 35 7 11 10 13 8 4 -3 -9 1 -16
8 -16 8 0 13 3 13 6 -1 3 2 14 6 23 7 15 10 15 22 3 8 -7 14 -16 14 -20z m318
10 c-3 -3 -9 2 -12 12 -6 14 -5 15 5 6 7 -7 10 -15 7 -18z m-191 -37 c-3 -7
-5 -2 -5 12 0 14 2 19 5 13 2 -7 2 -19 0 -25z m-136 -101 c-4 -22 -11 -42 -17
-44 -8 -3 -8 14 -1 59 11 68 27 55 18 -15z m37 -47 c1 -32 -2 -39 -7 -25 -5
11 -7 23 -4 28 2 4 0 7 -4 7 -5 0 -7 19 -4 43 4 37 5 39 12 17 4 -14 7 -45 7
-70z m29 38 c-3 -8 -6 -5 -6 6 -1 11 2 17 5 13 3 -3 4 -12 1 -19z"/>
<path d="M1740 2450 c-18 -12 -2 -12 25 0 13 6 15 9 5 9 -8 0 -22 -4 -30 -9z"/>
<path d="M1435 2439 c-4 -6 -5 -13 -2 -16 7 -7 27 6 27 18 0 12 -17 12 -25 -2z"/>
<path d="M1195 2430 c-3 -5 -2 -10 4 -10 5 0 13 5 16 10 3 6 2 10 -4 10 -5 0
-13 -4 -16 -10z"/>
<path d="M2453 2303 c6 -18 15 -33 19 -33 14 0 9 17 -12 41 l-19 24 12 -32z"/>
<path d="M1627 2263 c-10 -9 -8 -33 2 -33 5 0 11 9 14 20 5 20 -3 26 -16 13z"/>
<path d="M1647 2223 c-12 -12 -7 -22 8 -17 8 4 15 10 15 15 0 11 -14 12 -23 2z"/>
<path d="M1911 2209 c-7 -12 -10 -23 -8 -26 3 -3 11 5 17 17 6 12 10 23 8 25
-2 2 -10 -5 -17 -16z"/>
<path d="M1771 2174 c0 -11 3 -14 6 -6 3 7 2 16 -1 19 -3 4 -6 -2 -5 -13z"/>
<path d="M1771 2084 c0 -11 3 -14 6 -6 3 7 2 16 -1 19 -3 4 -6 -2 -5 -13z"/>
<path d="M1510 2031 c0 -6 4 -13 10 -16 6 -3 7 1 4 9 -7 18 -14 21 -14 7z"/>
<path d="M1810 1814 c-147 -40 -234 -140 -255 -296 -15 -100 48 -214 149 -273
23 -13 97 -40 165 -60 222 -65 291 -119 291 -231 0 -111 -62 -199 -162 -229
-63 -19 -208 -21 -270 -4 -137 36 -198 112 -206 257 l-5 82 -32 0 -32 0 -6
-95 c-5 -69 -16 -124 -40 -195 l-33 -100 32 0 c26 0 34 6 44 30 21 52 40 54
114 14 161 -85 384 -97 518 -28 56 29 115 92 144 157 24 53 28 75 29 152 0
102 -13 140 -71 199 -44 46 -155 98 -269 126 -205 52 -268 103 -267 218 1 100
65 182 165 212 71 21 168 24 236 6 126 -32 174 -96 175 -236 1 -84 1 -85 26
-85 22 0 26 5 33 50 17 113 39 209 58 251 25 59 24 64 -8 64 -21 0 -33 -8 -45
-30 -22 -38 -44 -38 -113 1 -30 17 -78 37 -107 45 -68 18 -188 17 -258 -2z"/>
<path d="M300 1791 c-74 -24 -135 -78 -167 -149 -26 -58 -23 -195 4 -248 28
-53 82 -100 130 -113 89 -25 229 -6 276 37 74 67 74 201 -1 257 -37 27 -142
34 -166 10 -27 -27 -3 -45 60 -45 40 0 59 -5 74 -20 47 -47 32 -138 -30 -172
-50 -27 -181 -21 -232 10 -92 57 -99 227 -14 320 47 53 66 57 297 60 240 4
249 2 249 -61 0 -25 -91 -525 -149 -822 -21 -109 -41 -125 -157 -125 l-64 0 0
-30 0 -30 255 0 255 0 0 29 0 29 -80 4 c-116 5 -119 9 -96 146 10 59 22 128
28 155 l10 47 156 0 c240 0 371 38 467 135 68 68 97 138 103 249 6 127 -7 168
-73 233 -41 40 -68 56 -121 74 -67 21 -85 22 -529 25 -253 2 -471 0 -485 -5z
m963 -76 c129 -46 167 -173 106 -360 -26 -80 -66 -128 -142 -164 -82 -41 -143
-51 -304 -51 -133 0 -133 0 -128 23 2 12 25 128 51 257 50 258 62 295 96 310
36 16 264 5 321 -15z"/>
<path d="M0 388 l0 -123 20 30 c11 17 20 36 20 44 0 14 14 7 16 -7 0 -4 3 -14
6 -22 4 -8 9 -26 11 -39 5 -20 3 -22 -19 -18 -13 2 -32 -2 -41 -9 -17 -13 -17
-14 2 -7 19 6 19 6 3 -14 -22 -24 -23 -33 -3 -33 8 0 15 6 15 14 0 21 15 28
45 20 18 -4 24 -11 21 -21 -4 -8 9 -2 27 13 19 16 32 31 31 33 -2 2 2 13 8 25
10 19 8 19 -16 -3 l-26 -25 10 30 c6 16 18 38 26 49 13 17 16 18 24 5 6 -8 7
-22 4 -30 -3 -8 -9 -21 -12 -29 -3 -9 -1 -12 6 -7 10 6 -32 -122 -44 -134 -3
-2 -19 2 -37 9 -18 8 -47 16 -65 18 l-33 5 3 -47 c3 -46 5 -48 45 -64 35 -13
40 -19 32 -34 -9 -16 -2 -17 90 -17 l100 0 3 32 c2 21 9 33 18 34 8 0 28 6 44
13 35 14 41 10 26 -18 -10 -19 -22 -26 -43 -22 -5 1 -6 -3 -3 -8 4 -5 -2 -14
-11 -20 -14 -8 3 -10 64 -11 80 0 81 0 94 29 15 35 32 31 23 -5 -6 -23 -4 -24
39 -24 27 0 47 5 50 13 4 10 6 10 6 0 1 -10 35 -13 136 -13 138 0 145 2 125
39 -11 22 14 63 34 55 17 -7 61 67 76 128 9 34 9 60 1 100 -10 46 -9 60 5 94
16 37 17 38 25 16 5 -14 5 -31 -1 -42 -17 -31 -11 -59 14 -75 26 -18 59 -9 69
18 7 18 -22 77 -38 77 -7 0 -15 7 -19 15 -7 18 5 20 22 3 9 -9 12 -7 12 9 0
12 -5 25 -11 29 -6 3 -9 15 -6 25 5 20 -20 27 -38 11 -6 -4 -27 -14 -47 -21
-31 -10 -45 -10 -75 0 -21 7 -42 17 -48 21 -5 4 -45 8 -90 8 l-80 -1 36 -32
c20 -18 59 -40 87 -50 48 -18 51 -17 106 1 l57 19 -32 -33 c-30 -31 -37 -34
-82 -30 -27 2 -54 9 -60 15 -32 32 -101 -6 -90 -50 6 -22 -5 -24 -29 -5 -11 8
-15 20 -11 34 4 16 1 22 -11 22 -9 0 -30 20 -48 44 -17 25 -43 50 -57 56 -38
15 -267 9 -264 -7 2 -7 -2 -13 -9 -13 -6 0 -9 -3 -5 -6 3 -3 1 -19 -5 -35 -6
-17 -13 -28 -16 -25 -12 13 -10 56 4 67 29 24 11 29 -101 29 l-115 0 0 -122z
m307 -12 c-5 -29 -3 -34 11 -30 14 5 13 2 -2 -10 -16 -13 -17 -16 -4 -16 8 0
20 10 26 23 9 18 11 19 11 4 1 -10 4 -16 9 -14 4 3 7 -10 8 -28 0 -31 -1 -33
-20 -23 -12 6 -33 19 -48 29 -14 11 -35 19 -46 19 -18 0 -32 18 -32 41 0 18
21 9 30 -13 8 -21 9 -19 11 12 l1 35 7 -30 7 -30 7 33 c9 44 31 43 24 -2z
m503 -12 c0 -2 -9 -4 -21 -4 -11 0 -18 4 -14 10 5 8 35 3 35 -6z m-5 -30 c-31
-24 -75 -45 -75 -36 0 13 37 40 62 45 13 2 25 5 28 5 3 1 -4 -6 -15 -14z m48
-34 c-23 -41 -29 -46 -31 -29 -3 17 40 79 55 79 2 0 -8 -23 -24 -50z m-738 30
c-3 -5 -1 -10 6 -10 17 0 2 -13 -19 -16 -18 -3 -34 15 -26 28 3 4 14 8 25 8
11 0 17 -4 14 -10z m295 -76 c0 -16 -16 -19 -25 -4 -8 13 4 32 16 25 5 -4 9
-13 9 -21z m53 -3 c-2 -6 2 -11 7 -11 6 0 10 -5 10 -11 0 -5 -4 -7 -10 -4 -5
3 -10 -1 -10 -9 0 -18 -15 -21 -25 -6 -9 15 6 61 19 57 6 -3 10 -10 9 -16z
m327 1 c0 -4 -9 -15 -20 -25 -22 -18 -26 -57 -9 -74 7 -7 5 -21 -8 -46 -10
-20 -20 -37 -23 -37 -3 0 -4 26 -4 57 1 40 8 70 24 96 20 34 40 48 40 29z
m-510 -59 c19 -2 134 -26 138 -29 2 -1 -1 -12 -8 -23 -14 -27 -59 -28 -94 0
-26 20 -37 14 -14 -9 9 -9 8 -12 -8 -12 -16 0 -20 6 -18 30 1 17 -3 28 -9 27
-6 -1 -13 9 -14 23 -2 16 0 20 5 10 4 -8 14 -16 22 -17z m150 -102 c-5 -11
-15 -23 -22 -27 -7 -5 -8 -2 -3 7 21 37 44 55 25 20z m-127 2 c-7 -2 -21 -2
-30 0 -10 3 -4 5 12 5 17 0 24 -2 18 -5z"/>
<path d="M899 498 c23 -6 37 -6 44 1 8 8 -2 11 -33 10 l-45 -1 34 -10z"/>
<path d="M1060 499 c0 -21 31 -77 56 -100 28 -26 31 -39 8 -39 -13 0 -14 -3
-5 -13 6 -8 8 -17 4 -20 -3 -4 -1 -7 4 -7 6 0 13 5 15 10 2 6 16 8 35 4 30 -6
32 -10 38 -59 9 -70 20 -87 41 -60 11 14 14 37 12 77 -2 31 0 54 5 51 4 -2 7
-19 8 -36 l1 -32 9 30 c5 17 7 38 5 47 -2 9 -1 18 3 20 4 2 16 17 28 33 12 17
47 44 79 60 47 24 75 30 158 36 67 5 32 6 -104 3 -113 -2 -226 -7 -252 -10
-33 -5 -48 -3 -48 5 0 7 -19 11 -50 11 -30 0 -50 -4 -50 -11z m149 -38 c16
-10 6 -31 -14 -31 -9 0 -12 6 -8 17 4 11 3 14 -5 9 -7 -4 -12 -2 -12 3 0 13
20 14 39 2z"/>
<path d="M1785 503 c-11 -3 -24 -12 -28 -19 -5 -8 -12 -12 -18 -9 -5 4 -9 -1
-9 -9 0 -9 6 -16 13 -16 8 0 14 -7 14 -15 0 -8 -4 -12 -9 -9 -4 3 -8 -1 -8 -8
0 -8 -14 -19 -31 -25 -16 -7 -29 -18 -28 -25 1 -7 -1 -26 -6 -41 -6 -24 -12
-28 -35 -25 -25 4 -28 2 -24 -21 1 -14 1 -20 -2 -14 -4 9 -11 10 -25 3 -13 -7
-19 -7 -19 0 0 5 4 10 9 10 5 0 11 7 14 14 4 10 1 13 -9 9 -7 -3 -14 -9 -14
-14 0 -5 -7 -9 -15 -9 -8 0 -15 -8 -15 -17 0 -15 2 -16 10 -3 6 9 10 10 10 3
0 -18 60 -13 104 9 21 11 52 22 69 24 29 3 29 3 12 -16 -10 -11 -15 -20 -10
-20 4 0 15 10 25 23 10 13 47 38 82 56 35 17 79 46 98 63 l35 30 -35 -5 c-19
-3 -50 -9 -68 -13 -31 -6 -33 -5 -30 18 2 14 11 37 21 51 l17 27 -37 -1 c-21
-1 -47 -4 -58 -6z"/>
<path d="M2002 503 c-28 -6 -26 -35 3 -43 21 -5 25 -25 12 -47 -18 -28 10 -11
38 24 62 76 61 73 13 72 -24 -1 -53 -4 -66 -6z"/>
<path d="M2275 503 c-47 -10 -48 -17 -5 -24 l45 -7 -56 1 c-30 0 -59 -2 -65
-5 -7 -5 -82 -20 -106 -22 -4 -1 -23 -20 -43 -44 -37 -43 -57 -48 -48 -12 3
13 0 20 -9 20 -16 0 -91 -60 -84 -68 7 -6 -33 -63 -55 -79 -11 -8 -15 -21 -12
-34 4 -15 -1 -27 -18 -40 -29 -22 -53 -25 -46 -4 9 21 -8 28 -24 9 -11 -14
-14 -13 -22 8 -8 21 -9 22 -18 5 -6 -10 -8 -25 -5 -32 3 -8 0 -17 -6 -21 -7
-5 -8 -2 -3 6 6 9 4 11 -4 6 -7 -5 -10 -10 -7 -13 3 -3 1 -14 -5 -24 -7 -14
-6 -19 3 -19 7 0 -5 -9 -28 -20 -22 -11 -51 -30 -65 -43 -20 -19 -21 -22 -6
-25 9 -2 17 -8 17 -13 0 -16 31 -10 57 11 14 11 30 17 35 14 5 -3 23 0 39 6
35 15 45 9 29 -19 -6 -12 -7 -21 -1 -21 5 0 12 7 15 16 4 9 9 14 13 11 3 -4
14 -2 23 3 15 8 17 6 13 -10 -4 -15 0 -20 15 -20 16 0 22 11 32 62 13 70 30
108 57 129 16 13 17 12 5 -2 -7 -9 -10 -25 -6 -35 4 -14 3 -15 -4 -5 -6 8 -12
9 -16 3 -7 -12 29 -26 44 -17 14 9 40 -20 40 -44 0 -12 6 -21 13 -21 8 0 14
-7 14 -15 0 -8 -4 -15 -8 -15 -3 0 -9 -8 -11 -18 -4 -12 1 -18 13 -19 20 -2
25 8 34 71 6 36 11 46 26 46 11 0 19 -7 19 -15 0 -8 5 -15 10 -15 6 0 10 6 10
13 0 14 34 16 47 4 3 -4 18 3 32 15 l25 23 -18 -28 -18 -29 24 7 c12 4 27 13
31 19 5 6 6 -6 3 -27 -7 -52 1 -72 21 -52 22 22 42 18 49 -10 3 -14 13 -25 21
-25 8 0 11 5 7 12 -4 6 0 16 8 22 14 10 27 60 28 109 0 10 5 15 10 12 6 -3 10
-1 10 5 0 6 5 8 10 5 6 -3 10 -15 10 -25 0 -10 12 -27 26 -37 22 -16 24 -22
15 -46 -21 -54 -18 -57 70 -56 l80 1 -3 26 c-3 22 -10 27 -55 37 -55 13 -78
26 -94 56 -7 15 -6 17 6 13 9 -4 15 0 15 9 0 9 9 19 21 22 29 10 64 45 44 45
-25 0 -5 26 28 37 18 5 24 9 15 7 -10 -1 -18 2 -18 7 0 5 -15 10 -32 10 -18 1
-25 3 -15 6 22 6 22 26 -2 47 -21 20 -22 43 0 57 12 8 12 11 -2 22 -8 6 -15
25 -14 40 2 26 0 28 -29 22 -17 -4 -36 -13 -42 -21 -8 -10 -13 -11 -24 -1 -9
9 -11 9 -6 0 7 -13 -4 -22 -34 -28 -12 -2 -23 2 -27 10 -3 8 -15 15 -27 16
-21 0 -21 0 2 9 12 5 30 7 40 3 15 -5 14 -4 -2 9 -17 14 -17 15 -2 21 10 4 14
11 11 17 -6 10 -43 12 -80 3z m-43 -305 c-7 -7 -12 -8 -12 -2 0 14 12 26 19
19 2 -3 -1 -11 -7 -17z m-62 -82 c-7 -7 -10 4 -9 29 1 40 1 40 10 10 5 -18 5
-33 -1 -39z m150 -56 c0 -5 -2 -10 -4 -10 -3 0 -8 5 -11 10 -3 6 -1 10 4 10 6
0 11 -4 11 -10z"/>
<path d="M2545 495 l-50 -13 47 -1 c26 0 50 4 53 10 11 16 4 17 -50 4z"/>
<path d="M2180 496 c0 -2 9 -6 20 -9 11 -3 20 -1 20 4 0 5 -9 9 -20 9 -11 0
-20 -2 -20 -4z"/>
<path d="M1960 460 c0 -5 5 -10 10 -10 6 0 10 5 10 10 0 6 -4 10 -10 10 -5 0
-10 -4 -10 -10z"/>
<path d="M1670 401 c0 -6 -6 -8 -14 -5 -8 3 -17 1 -21 -5 -3 -6 -1 -11 5 -11
6 0 8 -5 4 -11 -5 -8 -1 -8 14 0 27 14 35 28 22 36 -5 3 -10 2 -10 -4z"/>
<path d="M1594 334 c-18 -14 -18 -15 4 -4 12 6 22 13 22 15 0 8 -5 6 -26 -11z"/>
<path d="M1008 282 c-18 -2 -28 -10 -29 -20 -3 -54 -5 -69 -11 -87 -12 -36
-18 -130 -9 -144 6 -9 11 12 16 60 6 57 10 69 16 52 12 -32 20 -28 13 6 -9 44
12 45 25 1 6 -22 17 -40 22 -40 7 0 8 7 4 18 -10 24 -25 84 -24 102 0 8 10 -7
22 -35 12 -27 28 -60 35 -73 l13 -22 39 20 c21 11 47 32 58 48 19 26 19 30 5
57 -9 17 -19 37 -23 45 -7 15 -96 21 -172 12z"/>
<path d="M2105 70 c-16 -17 -16 -20 -3 -15 9 4 19 13 22 21 7 19 2 18 -19 -6z"/>
<path d="M1270 43 c0 -14 -2 -15 -9 -5 -5 9 -27 12 -72 10 l-64 -3 25 -23 c14
-13 36 -22 56 -22 27 0 31 3 27 20 -3 11 -1 20 5 20 6 0 14 -9 17 -20 3 -11
15 -20 26 -20 14 0 19 7 19 30 0 20 -5 30 -15 30 -8 0 -15 -8 -15 -17z"/>
<path d="M1430 46 c7 -9 16 -13 21 -10 5 3 9 2 8 -3 -6 -36 14 -44 31 -12 14
26 10 31 -36 36 -32 3 -36 2 -24 -11z"/>
</g>
</svg>
